<svg width="29" height="32" viewBox="0 0 29 32" fill="none" xmlns="http://www.w3.org/2000/svg">
<g id="iconspace_Processor 1">
<path id="Shape" d="M5.81854 5.09082H23.2731C24.4781 5.09082 25.4549 6.06765 25.4549 7.27264V24.7272C25.4549 25.9322 24.4781 26.909 23.2731 26.909H5.81854C4.61355 26.909 3.63672 25.9322 3.63672 24.7272V7.27264C3.63672 6.06765 4.61355 5.09082 5.81854 5.09082Z" fill="#154E84"/>
<path id="Shape_2" d="M5.81907 6.5459C5.41741 6.5459 5.0918 6.87151 5.0918 7.27317V24.7277C5.0918 25.1294 5.41741 25.455 5.81907 25.455H23.2736C23.6753 25.455 24.0009 25.1294 24.0009 24.7277V7.27317C24.0009 6.87151 23.6753 6.5459 23.2736 6.5459H5.81907Z" fill="#52ABE2"/>
<path id="Shape_3" d="M6.54492 8.72727C6.54492 8.32561 6.87053 8 7.27219 8H21.8176C22.2193 8 22.5449 8.32561 22.5449 8.72727V23.2727C22.5449 23.6744 22.2193 24 21.8176 24H7.27219C6.87053 24 6.54492 23.6744 6.54492 23.2727V8.72727Z" fill="#154E84"/>
<path id="Shape_4" d="M8 9.4541V22.545H21.0909V9.4541H8Z" fill="white"/>
<path id="Shape_5" fill-rule="evenodd" clip-rule="evenodd" d="M11.6367 13.8181C11.6367 13.4164 11.9623 13.0908 12.364 13.0908H16.7276C17.1293 13.0908 17.4549 13.4164 17.4549 13.8181V18.1817C17.4549 18.5834 17.1293 18.909 16.7276 18.909H12.364C11.9623 18.909 11.6367 18.5834 11.6367 18.1817V13.8181Z" fill="#FFC200"/>
<path id="Shape_6" d="M15.3022 5.62429V1.49876C15.3022 1.0971 14.9766 0.771484 14.5749 0.771484C14.1733 0.771484 13.8477 1.0971 13.8477 1.49876V5.62429C13.8477 6.02595 14.1733 6.35156 14.5749 6.35156C14.9766 6.35156 15.3022 6.02595 15.3022 5.62429Z" fill="#154E84"/>
<path id="Shape_7" d="M21.1206 5.62429V1.49876C21.1206 1.0971 20.795 0.771484 20.3933 0.771484C19.9916 0.771484 19.666 1.0971 19.666 1.49876V5.62429C19.666 6.02595 19.9916 6.35156 20.3933 6.35156C20.795 6.35156 21.1206 6.02595 21.1206 5.62429Z" fill="#154E84"/>
<path id="Shape_8" d="M15.2729 30.3069V26.1814C15.2729 25.7797 14.9473 25.4541 14.5456 25.4541C14.144 25.4541 13.8184 25.7797 13.8184 26.1814V30.3069C13.8184 30.7086 14.144 31.0342 14.5456 31.0342C14.9473 31.0342 15.2729 30.7086 15.2729 30.3069Z" fill="#154E84"/>
<path id="Shape_9" d="M21.0913 30.3069V26.1814C21.0913 25.7797 20.7657 25.4541 20.364 25.4541C19.9623 25.4541 19.6367 25.7797 19.6367 26.1814V30.3069C19.6367 30.7086 19.9623 31.0342 20.364 31.0342C20.7657 31.0342 21.0913 30.7086 21.0913 30.3069Z" fill="#154E84"/>
<path id="Shape_10" d="M9.45455 30.3069V26.1814C9.45455 25.7797 9.12893 25.4541 8.72727 25.4541C8.32561 25.4541 8 25.7797 8 26.1814V30.3069C8 30.7086 8.32561 31.0342 8.72727 31.0342C9.12893 31.0342 9.45455 30.7086 9.45455 30.3069Z" fill="#154E84"/>
<path id="Path" d="M28.1248 15.2793C28.5265 15.2793 28.8521 15.6049 28.8521 16.0066C28.8521 16.4082 28.5265 16.7338 28.1248 16.7338H25.4538C25.0522 16.7338 24.7266 16.4082 24.7266 16.0066C24.7266 15.6049 25.0522 15.2793 25.4538 15.2793H28.1248Z" fill="#154E84"/>
<path id="Path_2" d="M28.1248 9.46094C28.5265 9.46094 28.8521 9.78655 28.8521 10.1882C28.8521 10.5899 28.5265 10.9155 28.1248 10.9155H25.4538C25.0522 10.9155 24.7266 10.5899 24.7266 10.1882C24.7266 9.78655 25.0522 9.46094 25.4538 9.46094H28.1248Z" fill="#154E84"/>
<path id="Path_3" d="M28.1248 21.0977C28.5265 21.0977 28.8521 21.4233 28.8521 21.8249C28.8521 22.2266 28.5265 22.5522 28.1248 22.5522H25.4538C25.0522 22.5522 24.7266 22.2266 24.7266 21.8249C24.7266 21.4233 25.0522 21.0977 25.4538 21.0977H28.1248Z" fill="#154E84"/>
<path id="Path_4" d="M4.12553 15.2793C4.52719 15.2793 4.85281 15.6049 4.85281 16.0066C4.85281 16.4082 4.52719 16.7338 4.12553 16.7338H0.727273C0.325611 16.7338 0 16.4082 0 16.0066C0 15.6049 0.325611 15.2793 0.727273 15.2793H4.12553Z" fill="#154E84"/>
<path id="Path_5" d="M4.12553 9.46094C4.52719 9.46094 4.85281 9.78655 4.85281 10.1882C4.85281 10.5899 4.52719 10.9155 4.12553 10.9155H0.727273C0.325611 10.9155 0 10.5899 0 10.1882C0 9.78655 0.325611 9.46094 0.727273 9.46094H4.12553Z" fill="#154E84"/>
<path id="Path_6" d="M4.12553 21.0977C4.52719 21.0977 4.85281 21.4233 4.85281 21.8249C4.85281 22.2266 4.52719 22.5522 4.12553 22.5522H0.727273C0.325611 22.5522 0 22.2266 0 21.8249C0 21.4233 0.325611 21.0977 0.727273 21.0977H4.12553Z" fill="#154E84"/>
<path id="Shape_11" d="M9.48384 5.62429V1.49876C9.48384 1.0971 9.15823 0.771484 8.75657 0.771484C8.35491 0.771484 8.0293 1.0971 8.0293 1.49876V5.62429C8.0293 6.02595 8.35491 6.35156 8.75657 6.35156C9.15823 6.35156 9.48384 6.02595 9.48384 5.62429Z" fill="#154E84"/>
</g>
</svg>
