<svg width="32" height="32" viewBox="0 0 32 32" fill="none" xmlns="http://www.w3.org/2000/svg">
<g id="iconspace_Compact Disk 1">
<path id="Shape" fill-rule="evenodd" clip-rule="evenodd" d="M0.726562 16.0003C0.726562 24.4352 7.56439 31.273 15.9993 31.273C24.4342 31.273 31.272 24.4352 31.272 16.0003C31.272 7.56537 24.4342 0.727539 15.9993 0.727539C7.56439 0.727539 0.726562 7.56537 0.726562 16.0003ZM18.1811 16.0003C18.1811 17.2053 17.2043 18.1821 15.9993 18.1821C14.7943 18.1821 13.8175 17.2053 13.8175 16.0003C13.8175 14.7953 14.7943 13.8184 15.9993 13.8184C17.2043 13.8184 18.1811 14.7953 18.1811 16.0003Z" fill="#154E84"/>
<path id="Shape_2" fill-rule="evenodd" clip-rule="evenodd" d="M2.18164 15.9998C2.18164 23.6314 8.36825 29.818 15.9998 29.818C23.6314 29.818 29.818 23.6314 29.818 15.9998C29.818 8.36825 23.6314 2.18164 15.9998 2.18164C8.36825 2.18164 2.18164 8.36825 2.18164 15.9998ZM18.1816 15.9998C18.1816 17.2048 17.2048 18.1816 15.9998 18.1816C14.7948 18.1816 13.818 17.2048 13.818 15.9998C13.818 14.7948 14.7948 13.818 15.9998 13.818C17.2048 13.818 18.1816 14.7948 18.1816 15.9998Z" fill="white"/>
<path id="Shape_3" fill-rule="evenodd" clip-rule="evenodd" d="M15.9998 21.818C12.7865 21.818 10.1816 19.2131 10.1816 15.9998C10.1816 12.7865 12.7865 10.1816 15.9998 10.1816C19.2131 10.1816 21.818 12.7865 21.818 15.9998C21.818 19.2131 19.2131 21.818 15.9998 21.818ZM15.9998 18.9089C17.6065 18.9089 18.9089 17.6065 18.9089 15.9998C18.9089 14.3932 17.6065 13.0907 15.9998 13.0907C14.3932 13.0907 13.0907 14.3932 13.0907 15.9998C13.0907 17.6065 14.3932 18.9089 15.9998 18.9089Z" fill="#52ABE2"/>
<path id="Shape_4" fill-rule="evenodd" clip-rule="evenodd" d="M16 10.1816C19.2133 10.1816 21.8182 12.7865 21.8182 15.9998C21.8182 19.2131 19.2133 21.818 16 21.818V18.9089C17.6066 18.9089 18.9091 17.6065 18.9091 15.9998C18.9091 14.3932 17.6066 13.0907 16 13.0907V10.1816Z" fill="#FFC200"/>
<path id="Shape_5" fill-rule="evenodd" clip-rule="evenodd" d="M9.45508 15.9996C9.45508 19.6145 12.3856 22.545 16.0005 22.545C19.6155 22.545 22.546 19.6145 22.546 15.9996C22.546 12.3846 19.6155 9.4541 16.0005 9.4541C12.3856 9.4541 9.45508 12.3846 9.45508 15.9996ZM21.0914 15.9996C21.0914 18.8112 18.8122 21.0905 16.0005 21.0905C13.1889 21.0905 10.9096 18.8112 10.9096 15.9996C10.9096 13.1879 13.1889 10.9086 16.0005 10.9086C18.8122 10.9086 21.0914 13.1879 21.0914 15.9996ZM16.0005 19.6359C13.9922 19.6359 12.3642 18.0079 12.3642 15.9996C12.3642 13.9912 13.9922 12.3632 16.0005 12.3632C18.0088 12.3632 19.6369 13.9912 19.6369 15.9996C19.6369 18.0079 18.0088 19.6359 16.0005 19.6359ZM18.1824 15.9996C18.1824 17.2045 17.2055 18.1814 16.0005 18.1814C14.7955 18.1814 13.8187 17.2045 13.8187 15.9996C13.8187 14.7946 14.7955 13.8177 16.0005 13.8177C17.2055 13.8177 18.1824 14.7946 18.1824 15.9996Z" fill="#154E84"/>
<path id="Shape_6" d="M6.5451 17.4545C7.75008 17.4545 8.72692 16.4776 8.72692 15.2726C8.72692 14.0677 7.75008 13.0908 6.5451 13.0908C5.34011 13.0908 4.36328 14.0677 4.36328 15.2726C4.36328 16.4776 5.34011 17.4545 6.5451 17.4545Z" fill="white"/>
</g>
</svg>
