<svg width="40" height="40" viewBox="0 0 40 40" fill="none" xmlns="http://www.w3.org/2000/svg">
<g id="Icon_Amenities">
<path id="Path" fill-rule="evenodd" clip-rule="evenodd" d="M36.8002 17.6004H3.2002V9.60039C3.2002 7.83308 4.63288 6.40039 6.4002 6.40039H33.6002C35.3675 6.40039 36.8002 7.83308 36.8002 9.60039V17.6004ZM16.8002 12.8004H23.2148C23.6566 12.8004 24.0148 12.4422 24.0148 12.0004C24.0148 11.5586 23.6566 11.2004 23.2148 11.2004H16.8002C16.3584 11.2004 16.0002 11.5586 16.0002 12.0004C16.0002 12.4422 16.3584 12.8004 16.8002 12.8004Z" fill="#1565D8"/>
<path id="Path_2" fill-rule="evenodd" clip-rule="evenodd" d="M36.8002 19.2002V20.8002C36.8002 22.5675 35.3675 24.0002 33.6002 24.0002H6.4002C4.63288 24.0002 3.2002 22.5675 3.2002 20.8002V19.2002H36.8002Z" fill="#1565D8"/>
<path id="Path_3" opacity="0.3" fill-rule="evenodd" clip-rule="evenodd" d="M14.2744 27.7725C14.56 27.2636 15.259 27.0554 15.8356 27.3075C16.4122 27.5597 16.648 28.1767 16.3623 28.6856L14.823 31.4279C14.5374 31.9368 13.8384 32.145 13.2618 31.8928C12.6852 31.6407 12.4494 31.0237 12.7351 30.5148L14.2744 27.7725ZM8.06058 27.7723C8.34625 27.2633 9.04523 27.0552 9.6218 27.3073C10.1984 27.5595 10.4342 28.1765 10.1485 28.6855L8.60923 31.4281C8.32356 31.9371 7.62458 32.1452 7.04801 31.8931C6.47144 31.6409 6.23561 31.0239 6.52127 30.5149L8.06058 27.7723ZM23.613 28.6922C23.3231 28.1851 23.5539 27.5665 24.1284 27.3107C24.7028 27.0548 25.4035 27.2585 25.6934 27.7656L27.261 30.5082C27.5508 31.0153 27.3201 31.6338 26.7456 31.8897C26.1711 32.1456 25.4704 31.9419 25.1806 31.4348L23.613 28.6922ZM18.8276 28.2248C18.8276 27.6591 19.3492 27.2004 19.9927 27.2004C20.6361 27.2004 21.1578 27.6591 21.1578 28.2248V30.9756C21.1578 31.5413 20.6361 32 19.9927 32C19.3492 32 18.8276 31.5413 18.8276 30.9756V28.2248ZM29.8268 28.6922C29.5369 28.1851 29.7677 27.5665 30.3422 27.3107C30.9166 27.0548 31.6173 27.2585 31.9072 27.7656L33.4748 30.5082C33.7646 31.0153 33.5339 31.6338 32.9594 31.8897C32.3849 32.1456 31.6842 31.9419 31.3944 31.4348L29.8268 28.6922Z" fill="#1565D8"/>
</g>
</svg>
