<svg width="40" height="40" viewBox="0 0 40 40" fill="none" xmlns="http://www.w3.org/2000/svg">
<g id="iconspace_Price tag b_25px">
<path id="path" opacity="0.3" fill-rule="evenodd" clip-rule="evenodd" d="M24.7762 2.59885L21.5802 5.40096L25.7514 8.87691C26.6633 9.63688 27.1906 10.7627 27.1906 11.9498V30.4004C27.1906 32.6622 26.1477 34.6804 24.5165 36.0004H29.8659C32.8367 36.0004 35.2281 33.4844 35.2281 30.4004V11.9255C35.2281 11.2342 34.9301 10.5765 34.4103 10.1208L25.831 2.59885C25.5292 2.33424 25.078 2.33424 24.7762 2.59885ZM17.6281 14.4004C17.6281 15.7259 16.5536 16.8004 15.2281 16.8004C13.9026 16.8004 12.8281 15.7259 12.8281 14.4004C12.8281 13.0749 13.9026 12.0004 15.2281 12.0004C16.5536 12.0004 17.6281 13.0749 17.6281 14.4004Z" fill="#1565D8"/>
<path id="path_2" fill-rule="evenodd" clip-rule="evenodd" d="M4.79053 11.9498C4.79053 11.2375 5.1069 10.562 5.65408 10.1061L14.6784 2.58581C14.9751 2.33858 15.406 2.33858 15.7027 2.58581L24.727 10.1061C25.2742 10.562 25.5905 11.2375 25.5905 11.9498V30.4004C25.5905 33.4932 23.0833 36.0004 19.9905 36.0004H10.3905C7.29773 36.0004 4.79053 33.4932 4.79053 30.4004V11.9498ZM11.228 14.4004C11.228 16.6095 13.0189 18.4004 15.228 18.4004C17.4372 18.4004 19.228 16.6095 19.228 14.4004C19.228 12.1913 17.4372 10.4004 15.228 10.4004C13.0189 10.4004 11.228 12.1913 11.228 14.4004Z" fill="#1565D8"/>
</g>
</svg>
