<svg width="40" height="40" viewBox="0 0 40 40" fill="none" xmlns="http://www.w3.org/2000/svg">
<g id="Icon_Best Offers">
<path id="path" fill-rule="evenodd" clip-rule="evenodd" d="M19.2002 21.5878H17.609C17.1672 21.5878 16.809 21.9459 16.809 22.3878C16.809 22.8296 17.1672 23.1878 17.609 23.1878H22.4054C22.8472 23.1878 23.2054 22.8296 23.2054 22.3878C23.2054 21.9459 22.8472 21.5878 22.4054 21.5878H20.8002V11.4C20.8002 10.6998 19.9643 10.3375 19.4533 10.8161L17.4533 12.6895C17.1308 12.9915 17.1143 13.4978 17.4163 13.8202C17.7184 14.1427 18.2246 14.1593 18.5471 13.8572L19.2002 13.2455V21.5878ZM20.0002 29.6C12.931 29.6 7.2002 23.8692 7.2002 16.8C7.2002 9.73076 12.931 4 20.0002 4C27.0694 4 32.8002 9.73076 32.8002 16.8C32.8002 23.8692 27.0694 29.6 20.0002 29.6Z" fill="#1565D8"/>
<path id="path_2" opacity="0.3" fill-rule="evenodd" clip-rule="evenodd" d="M34.6066 30.7891L31.5197 25.4424C29.2408 28.4752 25.7923 30.5788 21.8439 31.0835L24.9071 36.3891C25.1793 36.8606 25.8329 36.9283 26.196 36.5226L29.3901 32.9539L34.0778 31.9721C34.6107 31.8605 34.8788 31.2606 34.6066 30.7891ZM15.3385 36.3647L18.3726 31.1095C14.4096 30.6637 10.9334 28.6095 8.6122 25.615L5.63901 30.7647C5.36677 31.2363 5.6349 31.8361 6.16783 31.9477L10.8555 32.9296L14.0496 36.4982C14.4127 36.904 15.0663 36.8363 15.3385 36.3647Z" fill="#1565D8"/>
</g>
</svg>
